<?xml version="1.0" encoding="UTF-8"?>
<svg version="1.1" xmlns="http://www.w3.org/2000/svg" width="500" height="500">
<path d="M0 0 C1.75866821 -0.00202839 3.5173356 -0.00494613 5.27600098 -0.00869751 C8.93685016 -0.01308496 12.59747766 -0.00680671 16.25830078 0.00732422 C20.90761218 0.02441391 25.55640369 0.01455329 30.20569611 -0.00339317 C33.82981148 -0.01432874 37.4538073 -0.01074035 41.07792664 -0.0030098 C42.79042119 -0.00103466 44.50292726 -0.00337036 46.21540833 -0.01044846 C59.94279297 -0.05476119 73.19190001 1.00151465 85.96875 6.5234375 C86.67402832 6.8227417 87.37930664 7.1220459 88.10595703 7.43041992 C110.46269277 17.32996026 126.88113989 36.23410148 135.6640625 58.7890625 C140.14524165 72.53134524 140.62741894 86.08935046 140.5390625 100.38671875 C140.53532343 102.18417705 140.53248069 103.98163742 140.53048706 105.77909851 C140.52292092 110.4659914 140.50333439 115.15275653 140.4810791 119.83959961 C140.46046778 124.63979363 140.45145295 129.44000868 140.44140625 134.24023438 C140.42008052 143.62635762 140.38603145 153.01238686 140.34375 162.3984375 C137.94022263 163.52884397 135.53581352 164.65730431 133.13085938 165.78466797 C132.45392029 166.10328293 131.7769812 166.42189789 131.07952881 166.75016785 C126.41198212 168.93570593 121.75298819 170.93840575 116.84375 172.5234375 C116.11075684 172.76296143 115.37776367 173.00248535 114.62255859 173.24926758 C91.78013842 180.4353002 66.96086498 184.49538073 43.01171875 184.6015625 C41.95024124 184.60866745 40.88876373 184.6157724 39.79512024 184.62309265 C-7.53426258 184.86764265 -52.62754869 179.48132911 -97.65625 164.3984375 C-97.7496029 153.62676201 -97.82034225 142.85518532 -97.86349869 132.0831852 C-97.88422869 127.07939828 -97.91227403 122.07589143 -97.95800781 117.07226562 C-98.00199316 112.2287159 -98.02549623 107.38543274 -98.03575897 102.54169846 C-98.0430571 100.7088337 -98.05730317 98.8759808 -98.07917023 97.04323196 C-98.40228146 68.79657432 -90.52716647 45.87558532 -70.65625 25.3984375 C-51.10676729 5.77681647 -26.75281092 -0.11057583 0 0 Z " fill="#000000" transform="translate(170.65625,265.6015625)"/>
<path d="M0 0 C8.5897362 -0.07009413 17.17934915 -0.12310827 25.76930237 -0.15543652 C29.75971719 -0.1709672 33.74993366 -0.19196901 37.74023438 -0.22631836 C41.60470474 -0.25936916 45.46898665 -0.27694716 49.33358765 -0.28463173 C50.79408732 -0.29009458 52.25457891 -0.30075651 53.71499634 -0.31719017 C80.56837403 -0.60682197 104.66615337 8.14572211 124 27 C144.61903253 48.36118863 149.38286054 74.70698599 149.1953125 103.30859375 C149.19157088 105.01351249 149.18872936 106.71843342 149.18673706 108.4233551 C149.17919093 112.85704751 149.15962283 117.29060368 149.1373291 121.72424316 C149.11667344 126.26991942 149.10769368 130.81561822 149.09765625 135.36132812 C149.07636606 144.24094446 149.04234273 153.12046079 149 162 C142.05007375 165.55405964 135.2299699 168.55764735 127.8125 171 C126.77512695 171.34248779 125.73775391 171.68497559 124.66894531 172.0378418 C102.31443236 179.21597398 77.71552228 184.10868858 54.16015625 184.01953125 C53.18828369 184.01671143 52.21641113 184.0138916 51.21508789 184.01098633 C50.48410889 184.00736084 49.75312988 184.00373535 49 184 C48.98541748 183.01829834 48.97083496 182.03659668 48.95581055 181.02514648 C48.89687912 177.30655364 48.81967431 173.58850809 48.73754883 169.87036133 C48.7047373 168.27540106 48.67657673 166.68033683 48.65356445 165.08520508 C48.45131451 151.42257561 47.04152164 138.38522369 42.3125 125.4375 C42.05903809 124.7355249 41.80557617 124.0335498 41.54443359 123.31030273 C33.9837504 103.22936401 19.23430666 85.31591381 1 74 C0.08863281 73.41734375 -0.82273437 72.8346875 -1.76171875 72.234375 C-9.4928121 67.48630699 -17.53250476 64.15795929 -26 61 C-24.65705315 58.01422497 -23.1496314 55.96310949 -20.875 53.625 C-8.83949112 40.13520047 -2.38500013 22.0060196 -0.46386719 4.2800293 C-0.37627136 3.47647507 -0.28867554 2.67292084 -0.19842529 1.84501648 C-0.13294495 1.23616104 -0.0674646 0.6273056 0 0 Z " fill="#000000" transform="translate(278,194)"/>
<path d="M0 0 C14.58684641 11.32506547 24.57607052 26.92684562 27.61328125 45.2578125 C30.21845628 66.57494034 25.08935546 85.23826544 12.1875 102.37109375 C0.57035473 116.05300508 -16.09144587 125.00322586 -33.9375 126.93359375 C-53.445597 128.14416742 -72.69688022 123.96688144 -87.91479492 111.00390625 C-103.35880493 96.9787543 -111.41085384 79.55349461 -112.9375 58.93359375 C-113.30979081 40.18189355 -107.02515285 22.76253884 -94.1003418 9.14282227 C-92.72343603 7.72923616 -91.33086019 6.33096361 -89.9375 4.93359375 C-89.27878906 4.25167969 -88.62007812 3.56976563 -87.94140625 2.8671875 C-64.36967476 -19.79208987 -25.29347249 -17.79288158 0 0 Z " fill="#000000" transform="translate(234.9375,135.06640625)"/>
<path d="M0 0 C14.17450597 11.99909714 23.23300451 27.60264974 25.6875 46.125 C27.13408683 66.77834893 22.49837662 85.85160975 8.765625 101.890625 C-3.56584871 115.14927719 -20.1042902 124.54261335 -38.4921875 125.36328125 C-49.61785091 125.62276158 -65.4665838 125.91820503 -74.3125 118.125 C-75.47673667 115.14262419 -76.02419385 112.07458932 -76.625 108.9375 C-80.71715785 90.44014513 -90.85416898 70.95291224 -107.10546875 60.29296875 C-108.86025678 59.19653561 -110.63731242 58.13435193 -112.44140625 57.12109375 C-114.3125 55.125 -114.3125 55.125 -114.6875 51.41796875 C-113.58518031 32.618133 -105.64967727 17.11323949 -92.3125 4.125 C-91.631875 3.44695312 -90.95125 2.76890625 -90.25 2.0703125 C-65.13953697 -21.47074659 -26.42629117 -20.22255818 0 0 Z " fill="#000000" transform="translate(352.3125,64.875)"/>
</svg>
