<?xml version="1.0" encoding="UTF-8"?>
<svg version="1.1" xmlns="http://www.w3.org/2000/svg" width="500" height="500">
<path d="M0 0 C5.41019186 3.03668833 9.72680784 7.26520189 14.140625 11.56640625 C17.99757457 15.10194336 21.1671728 17.95423108 26.4375 18.625 C31.13928543 18.39981871 35.6905881 17.24810723 40.28100586 16.26660156 C48.73031259 14.52551952 58.14666164 13.56400483 65.8046875 18.3046875 C72.26459754 23.21200114 74.92469619 29.94100727 77.46484375 37.4375 C77.84757446 38.56418091 77.84757446 38.56418091 78.23803711 39.71362305 C78.73575828 41.20710551 79.21779202 42.70593311 79.68188477 44.21020508 C81.24553703 48.99699685 82.8592271 52.06531295 87 55.1875 C90.17622955 56.58892759 93.43406553 57.60731644 96.75 58.625 C115.17111521 64.71354495 115.17111521 64.71354495 120.04077148 73.90112305 C123.32696077 81.73394633 121.65682549 89.91552849 120 97.9375 C117.90411917 106.58938917 117.90411917 106.58938917 119 115.1875 C120.68009158 117.30836518 122.28144131 119.11483561 124.1875 121 C131.47800536 128.59780864 138.42597183 136.65908142 139.1640625 147.625 C138.71511334 158.67605627 131.51827764 166.14778198 124.1394043 173.6340332 C121.22565863 176.62960737 118.9851686 179.07830993 118 183.1875 C118.11752999 186.01792402 118.11752999 186.01792402 118.75 189 C119.04390625 190.70349609 119.04390625 190.70349609 119.34375 192.44140625 C119.5603125 193.67761719 119.776875 194.91382813 120 196.1875 C123.23448723 215.85603633 123.23448723 215.85603633 118.72265625 223.29296875 C111.59061651 232.58728949 100.03927307 235.74471354 89.25 238.9140625 C85.85592864 240.24395104 84.07607718 241.19232616 82 244.1875 C82.45212218 248.58950793 84.23928443 252.54218272 85.9296875 256.58984375 C86.23145905 257.32264053 86.53323059 258.05543732 86.84414673 258.81044006 C87.85017481 261.25040841 88.86260564 263.68766705 89.875 266.125 C90.59221198 267.8611567 91.30899966 269.59748874 92.02539062 271.33398438 C93.55309415 275.03476002 95.08353794 278.73438519 96.61621094 282.43310547 C98.99064155 288.16326008 101.35928706 293.89579255 103.7265625 299.62890625 C104.52082197 301.55233217 105.31509283 303.47575338 106.109375 305.39916992 C106.50350586 306.35358978 106.89763672 307.30800964 107.30371094 308.29135132 C108.50142626 311.19095291 109.69983526 314.09026689 110.8984375 316.98950195 C116.9038518 331.51769062 122.88044338 346.05754827 128.83789062 360.60546875 C129.14691818 361.35963074 129.45594574 362.11379272 129.77433777 362.89080811 C130.3675639 364.33939446 130.95997096 365.78831657 131.5514679 367.23760986 C132.85812881 370.43354772 134.18455765 373.61634138 135.54956055 376.78808594 C136.00886963 377.85575195 136.46817871 378.92341797 136.94140625 380.0234375 C137.34045166 380.93399902 137.73949707 381.84456055 138.15063477 382.78271484 C139.46068383 386.49182185 139.31143492 388.48462493 138 392.1875 C136.4375 394.625 136.4375 394.625 134 396.1875 C126.3889687 397.36663411 120.74125858 394.04651042 114.16466522 390.60105705 C112.20432869 389.57410351 110.23473491 388.56730886 108.26177979 387.56483459 C104.79095114 385.79728947 101.32918598 384.01278316 97.87011719 382.22235107 C92.32170418 379.35054898 86.76653382 376.4924901 81.1989212 373.65808296 C79.25911467 372.6650091 77.32750426 371.65715828 75.39593506 370.6481781 C74.2208136 370.04748001 73.04569214 369.44678192 71.83496094 368.82788086 C70.28563873 368.02512978 70.28563873 368.02512978 68.70501709 367.2061615 C65.75824442 366.09645913 64.8323138 365.94292711 62 367.1875 C59.84001111 368.41066157 59.84001111 368.41066157 57.63378906 369.96313477 C56.77899963 370.54366104 55.92421021 371.12418732 55.04351807 371.7223053 C54.12681335 372.35148361 53.21010864 372.98066193 52.265625 373.62890625 C50.31040132 374.94801519 48.3546556 376.2663506 46.3984375 377.58398438 C43.32080019 379.66529432 40.24725406 381.75188198 37.18261719 383.85229492 C34.22125295 385.87792716 31.24499131 387.87988047 28.265625 389.87890625 C27.35701721 390.5101088 26.44840942 391.14131134 25.51226807 391.79164124 C18.32566083 396.57532837 18.32566083 396.57532837 13.67089844 396.95678711 C9.86234419 396.15865234 8.28777247 395.31584008 6.0531311 392.12045288 C4.03328531 388.41315875 2.7301511 384.53152151 1.44921875 380.51953125 C1.14554886 379.60290207 0.84187897 378.68627289 0.52900696 377.74186707 C-0.10655744 375.81510114 -0.73567064 373.88619643 -1.35864258 371.95532227 C-2.31420943 368.9947037 -3.2890911 366.04100418 -4.26757812 363.08789062 C-4.88394081 361.21130772 -5.49921376 359.33436646 -6.11328125 357.45703125 C-6.54910271 356.13044243 -6.54910271 356.13044243 -6.99372864 354.77705383 C-7.25788071 353.95577499 -7.52203278 353.13449615 -7.79418945 352.28833008 C-8.02781693 351.56696365 -8.2614444 350.84559723 -8.50215149 350.10237122 C-9 348.1875 -9 348.1875 -9 345.1875 C-9.66 345.1875 -10.32 345.1875 -11 345.1875 C-11.09369873 345.97809814 -11.18739746 346.76869629 -11.28393555 347.58325195 C-12.2040803 352.21472043 -13.78917211 356.44667608 -15.45703125 360.85546875 C-15.80126633 361.77209793 -16.1455014 362.68872711 -16.50016785 363.63313293 C-17.2276617 365.56311482 -17.95821926 367.49194431 -18.69165039 369.41967773 C-19.81087419 372.37071325 -20.91059379 375.32855636 -22.00976562 378.28710938 C-22.72016887 380.16451144 -23.43171853 382.04148019 -24.14453125 383.91796875 C-24.63382866 385.24455757 -24.63382866 385.24455757 -25.13301086 386.59794617 C-25.44981308 387.41922501 -25.7666153 388.24050385 -26.09301758 389.08666992 C-26.36535721 389.80803635 -26.63769684 390.52940277 -26.91828918 391.27262878 C-28.27082921 393.66692856 -29.65862857 394.76527613 -32 396.1875 C-39.69773396 397.42318205 -43.88800577 394.25341569 -50.01171875 389.87890625 C-50.94297073 389.23759262 -51.87422272 388.59627899 -52.83369446 387.93553162 C-55.79741256 385.89098426 -58.74311021 383.82226322 -61.6875 381.75 C-64.64492164 379.68502199 -67.60586654 377.62554271 -70.57344055 375.57518005 C-72.41634976 374.30022405 -74.25304901 373.01623366 -76.08268738 371.7223053 C-76.91738052 371.14177902 -77.75207367 370.56125275 -78.61206055 369.96313477 C-79.70504707 369.19369286 -79.70504707 369.19369286 -80.82011414 368.40870667 C-83.35481609 366.98872639 -85.09066219 366.36838509 -88 366.1875 C-90.93279507 367.17443252 -90.93279507 367.17443252 -93.94848633 368.82788086 C-95.12353226 369.42857895 -96.29857819 370.02927704 -97.50923157 370.6481781 C-98.13182673 370.97470304 -98.75442188 371.30122799 -99.39588356 371.63764763 C-101.35344757 372.66356762 -103.3194898 373.67117202 -105.28874207 374.67445374 C-110.1790492 377.17031695 -115.05449771 379.69464482 -119.92840576 382.22235107 C-124.04648312 384.3572839 -128.17081373 386.47903851 -132.30475426 388.58310127 C-134.2346975 389.5719951 -136.15412886 390.57946773 -138.07392883 391.58787537 C-149.04946328 397.24585029 -149.04946328 397.24585029 -156 396.1875 C-158.5 394.75 -158.5 394.75 -160 392.1875 C-160.80836806 385.93423322 -159.5881205 380.94821644 -157.02734375 375.296875 C-156.71326569 374.56746201 -156.39918762 373.83804901 -156.07559204 373.08653259 C-155.39787924 371.51721584 -154.7128808 369.95102877 -154.02127075 368.38778687 C-152.53136398 365.01927098 -151.07768907 361.63549504 -149.62162781 358.25224304 C-148.8650277 356.4948975 -148.10663799 354.73832143 -147.34651184 352.98249817 C-143.60912029 344.33665805 -140.07228157 335.61512553 -136.5625 326.875 C-130.47335683 311.75370256 -124.25852444 296.68689223 -117.98461914 281.64135742 C-116.32329173 277.65599741 -114.67489337 273.66543944 -113.03057861 269.67303467 C-111.92694972 267.01131839 -110.80477725 264.35777155 -109.68310547 261.70361328 C-108.93266665 259.8977108 -108.18281323 258.09156494 -107.43359375 256.28515625 C-106.89533714 255.02970253 -106.89533714 255.02970253 -106.34620667 253.74888611 C-104.97104066 250.39795895 -103.98424322 247.90238216 -104.06469727 244.25219727 C-105.20907231 241.72596919 -106.01370353 241.16029966 -108.53125 240.0546875 C-109.25441406 239.73338867 -109.97757813 239.41208984 -110.72265625 239.08105469 C-114.27472116 237.6873414 -117.86939464 236.48284115 -121.5 235.3125 C-130.51727276 232.25308559 -137.24952104 228.73836213 -142 220.1875 C-144.64132921 212.26351237 -143.33682 202.78270583 -141.4375 194.8125 C-139.35640113 186.90216899 -139.35640113 186.90216899 -141 179.1875 C-143.83047918 175.74737915 -146.84576205 172.58903858 -149.96875 169.41796875 C-155.95582144 163.24518041 -160.08079797 156.30395982 -160.375 147.625 C-160.17770761 135.87201049 -153.53451961 129.14483002 -145.7421875 121.16796875 C-142.60337859 117.84887791 -140.10020055 115.12651598 -139.85546875 110.390625 C-139.96503906 109.41609375 -140.07460937 108.4415625 -140.1875 107.4375 C-140.30351562 106.37660156 -140.41953125 105.31570312 -140.5390625 104.22265625 C-140.92129107 101.7057783 -141.41888829 99.33285051 -142.0625 96.875 C-144.10582229 88.42307598 -144.53446804 78.76685238 -140 71.1875 C-133.98677709 64.14343888 -126.44102721 60.64352078 -117.75 58 C-116.18145138 57.50918781 -114.61371081 57.01578415 -113.046875 56.51953125 C-112.36463867 56.31046143 -111.68240234 56.1013916 -110.97949219 55.88598633 C-108.83948988 55.13086218 -106.94188386 54.3693037 -105 53.1875 C-103.84277841 50.70731663 -102.92285701 48.39208459 -102.0625 45.8125 C-101.54712539 44.36012526 -101.03018166 42.90830641 -100.51171875 41.45703125 C-100.25825684 40.73596191 -100.00479492 40.01489258 -99.74365234 39.27197266 C-98.69008828 36.31881113 -97.55126336 33.40627532 -96.375 30.5 C-96.01148438 29.58863281 -95.64796875 28.67726563 -95.2734375 27.73828125 C-92.30757021 21.79744891 -88.76721517 19.07110758 -83 16.1875 C-74.70867385 13.62595208 -66.02008698 15.33321013 -57.74707031 17.12011719 C-49.62471942 18.86250455 -49.62471942 18.86250455 -41.921875 16.52734375 C-39.40296458 14.5101949 -37.02574208 12.42894072 -34.71484375 10.17700195 C-24.86010044 0.57683951 -13.91720333 -6.08877646 0 0 Z M-22.8125 23.5625 C-32.90266462 32.79911595 -40.07987164 35.81130822 -53.74658203 35.35009766 C-58.74561735 34.9893872 -63.5998187 33.85894097 -68.4765625 32.74609375 C-73.33783625 31.97514192 -73.33783625 31.97514192 -78 33.1875 C-82.12720987 38.66199699 -83.70372069 46.08467667 -85.62304688 52.56445312 C-87.86771356 59.71435874 -90.54943519 65.01236253 -97.16796875 68.90234375 C-102.87426122 71.79509239 -108.89395889 73.67059251 -114.97851562 75.59179688 C-121.36745288 77.57943672 -121.36745288 77.57943672 -126 82.1875 C-126.34226333 84.70950932 -126.34226333 84.70950932 -125.875 87.375 C-125.68744141 88.84259766 -125.68744141 88.84259766 -125.49609375 90.33984375 C-125.0759103 92.75176294 -124.55281159 95.07057149 -123.9375 97.4375 C-121.95746567 105.84130984 -121.28374216 116.11164425 -125.3984375 123.94140625 C-128.34840032 128.07854922 -131.85950734 131.71723364 -135.35546875 135.390625 C-138.35807637 138.56620411 -140.86425913 141.37367701 -143 145.1875 C-142.76696791 150.13443845 -141.37219838 152.4049531 -137.9375 155.875 C-128.26138748 166.10756627 -122.57670968 173.77914375 -122.73046875 188.05078125 C-122.9799144 193.4503201 -124.11247387 198.59763162 -125.34375 203.84765625 C-125.99987215 207.18684935 -126.4868052 209.8126293 -126 213.1875 C-122.26325599 217.38012678 -117.45826394 218.56767964 -112.25 220.125 C-101.70332053 223.49190589 -93.98191851 226.42731815 -88 236.1875 C-86.35984289 239.86142484 -85.07109583 243.61831267 -83.8125 247.4375 C-83.15867295 249.38234759 -82.49873663 251.32515447 -81.83203125 253.265625 C-81.55077393 254.11543945 -81.2695166 254.96525391 -80.97973633 255.84082031 C-79.92483833 258.36752839 -78.87940139 260.19224704 -77 262.1875 C-71.2164688 262.86224531 -66.23987253 261.88726831 -60.5625 260.6875 C-50.34726229 258.55677676 -42.32796817 257.89363036 -33 263.1875 C-28.30259898 266.59065207 -23.94948771 270.34238901 -19.73828125 274.328125 C-18.72314453 275.27945313 -18.72314453 275.27945313 -17.6875 276.25 C-17.11386719 276.81847656 -16.54023438 277.38695312 -15.94921875 277.97265625 C-13.054686 279.77666363 -11.35747666 279.72154993 -8 279.1875 C-5.64404338 277.54476102 -3.70478774 275.99695467 -1.625 274.0625 C-0.47901604 273.04817676 0.66811494 272.0351479 1.81640625 271.0234375 C2.36441895 270.53327148 2.91243164 270.04310547 3.47705078 269.53808594 C10.58161882 263.23759373 17.45202697 258.57662584 27.25 258.8828125 C30.87333433 259.28426147 34.42668699 259.98091734 38 260.6875 C46.4479412 262.39799324 46.4479412 262.39799324 55 262.1875 C59.33334847 258.07165551 60.62235202 252.96966085 62.375 247.4375 C68.33481896 229.83131336 68.33481896 229.83131336 77.3125 225 C83.15361483 222.35828978 89.20151014 220.24486907 95.30004883 218.27856445 C100.3369021 216.73206356 100.3369021 216.73206356 104 213.1875 C104.62045177 207.81025136 103.62723465 203.15153171 102.5 197.875 C100.32939232 187.59163483 99.46128098 178.54704658 105 169.1875 C107.81214067 165.66960974 110.89352702 162.44487367 114 159.1875 C115.40345246 157.65050539 116.7809283 156.08918297 118.125 154.5 C118.70507812 153.83613281 119.28515625 153.17226562 119.8828125 152.48828125 C121.57719481 148.99880159 121.02787722 146.87741862 120 143.1875 C118.33384068 141.03129382 116.81052939 139.30214725 114.875 137.4375 C106.01365438 128.36551347 100.70289788 120.45665975 100.765625 107.61328125 C101.09721874 102.76648614 102.2243838 98.19213897 103.31640625 93.46875 C104.22168752 89.1233999 104.50676973 85.60363626 104 81.1875 C101.4206762 78.77325869 98.8500178 77.60867736 95.515625 76.5390625 C94.23558594 76.11367187 94.23558594 76.11367187 92.9296875 75.6796875 C91.15965975 75.10687968 89.38883789 74.53651926 87.6171875 73.96875 C78.17673166 70.82193139 71.07930404 67.04495809 66 58.1875 C64.5343091 54.85747699 63.39689776 51.47059044 62.3125 48 C60.08916231 40.11171742 60.08916231 40.11171742 56 33.1875 C51.36745605 31.67175262 47.77499432 32.48030774 43.125 33.625 C32.75114521 35.91096274 21.00118173 37.63751899 11.4375 32.015625 C7.29789109 28.91091832 3.56040037 25.41766424 -0.140625 21.80859375 C-9.897924 12.864403 -13.9858749 15.43487782 -22.8125 23.5625 Z " fill="#000000" transform="translate(260,52.8125)"/>
<path d="M0 0 C9.09342586 8.34579341 15.57464619 18.05326776 21.140625 28.9453125 C21.6975 30.03328125 22.254375 31.12125 22.828125 32.2421875 C33.55886806 55.09867021 34.3575501 82.50279432 26.08911133 106.26171875 C16.49419315 132.21755771 -1.63711828 152.33128634 -26.484375 164.3203125 C-51.86841573 175.31902782 -80.10436173 176.51113641 -105.99487305 166.47875977 C-131.55834898 155.98997098 -150.38690039 136.51547921 -161.546875 111.25390625 C-171.17818287 86.97498434 -171.61491461 59.1430317 -161.69287109 34.82519531 C-157.18609284 24.66052262 -151.3465554 15.17590089 -143.859375 6.9453125 C-142.98796875 5.98109375 -142.1165625 5.016875 -141.21875 4.0234375 C-103.25704256 -36.58555695 -40.46737493 -35.82129979 0 0 Z " fill="#000000" transform="translate(317.859375,127.0546875)"/>
</svg>
